<svg width="64" height="64" xmlns="http://www.w3.org/2000/svg">
 <g>
  <title>background</title>
  <rect fill="#FFFFFF" id="canvas_background" height="66" width="66" y="-1" x="-1"/>
 </g>

 <g>
  <title>Layer 1</title>
  <g id="svg_1">
   <g stroke="null" id="svg_2" fill="#1D1D1B">
    <path stroke="null" id="svg_3" d="m58.095595,4.296831c-0.748106,-0.606732 -1.839549,-0.484712 -2.439549,0.269284l-27.710212,34.86813l-9.072362,-11.415136c-0.599999,-0.754838 -1.693968,-0.876858 -2.44039,-0.269284c-0.747264,0.606732 -0.867601,1.709956 -0.265077,2.466477l10.03842,12.631966c0.303787,0.543618 0.873491,0.868442 1.487797,0.868442c0.096774,0 0.19439,-0.02777 0.293688,-0.0446c0.05554,0.006732 0.111921,0.037027 0.169986,0.037027c0.548667,0 1.083028,-0.268443 1.420476,-0.723702l28.783984,-36.222967c0.601682,-0.754838 0.481346,-1.858904 -0.26676,-2.465636z"/>
    <path stroke="null" id="svg_4" d="m54.671475,21.737207c-0.959326,0 -1.735202,0.785132 -1.735202,1.753715l0,29.013717c0,0.9669 -0.779242,1.754557 -1.736885,1.754557l-41.101223,0c-0.958484,0 -1.736885,-0.787657 -1.736885,-1.754557l0,-41.531237c0,-0.966058 0.779242,-1.753715 1.736885,-1.753715l28.452428,0c0.960167,0 1.736043,-0.785974 1.736043,-1.755398c0,-0.967741 -0.776717,-1.753715 -1.736043,-1.753715l-28.452428,0c-2.872929,0 -5.208971,2.360447 -5.208971,5.262828l0,41.531237c0,2.902382 2.336043,5.26367 5.208971,5.26367l41.100382,0c2.872929,0 5.209813,-2.361288 5.209813,-5.26367l0,-29.013717c0.000842,-0.969424 -0.775876,-1.753715 -1.736885,-1.753715z"/>
   </g>
  </g>
 </g>
</svg>