<svg width="64" height="64" xmlns="http://www.w3.org/2000/svg">
 <g>
  <title>background</title>
  <rect x="-1" y="-1" width="66" height="66" id="canvas_background" fill="#FFFFFF"/>
 </g>

 <g>
  <title>Layer 1</title>
  <g id="svg_1">
   <g fill="#1D1D1B" id="svg_2">
    <path d="m63.228,0.459c-0.889,-0.721 -2.186,-0.576 -2.899,0.32l-32.929,41.435l-10.781,-13.565c-0.713,-0.897 -2.013,-1.042 -2.9,-0.32c-0.888,0.721 -1.031,2.032 -0.315,2.931l11.929,15.011c0.361,0.646 1.038,1.032 1.768,1.032c0.115,0 0.231,-0.033 0.349,-0.053c0.066,0.008 0.133,0.044 0.202,0.044c0.652,0 1.287,-0.319 1.688,-0.86l34.205,-43.045c0.715,-0.897 0.572,-2.209 -0.317,-2.93z" id="svg_3"/>
    <path d="m59.159,21.184c-1.14,0 -2.062,0.933 -2.062,2.084l0,34.478c0,1.149 -0.926,2.085 -2.064,2.085l-48.842,0c-1.139,0 -2.064,-0.936 -2.064,-2.085l0,-49.353c0,-1.148 0.926,-2.084 2.064,-2.084l33.811,0c1.141,0 2.063,-0.934 2.063,-2.086c0,-1.15 -0.923,-2.084 -2.063,-2.084l-33.811,0c-3.414,0 -6.19,2.805 -6.19,6.254l0,49.353c0,3.449 2.776,6.255 6.19,6.255l48.841,0c3.414,0 6.191,-2.806 6.191,-6.255l0,-34.478c0.001,-1.152 -0.922,-2.084 -2.064,-2.084z" id="svg_4"/>
   </g>
  </g>
 </g>
</svg>